<svg width="1920" height="722" viewBox="0 0 1920 722" fill="none" xmlns="http://www.w3.org/2000/svg">
<path d="M0 11.5C7.83333 30.1667 31.1 71.1 61.5 85.5C79 95.5 89.5 100 114 107.5C122.725 110.171 191.801 129.024 214.5 139.5C234 148.5 267.5 165 286.5 225.5C290 241 294 263.5 288 306C282 348.5 297 393 328.5 426C332.795 430.5 354.789 446.682 376 450.5C401 455 466.5 436 488.5 490C499.938 517.213 508.264 553.306 511.85 568.85L512 569.5C516 588.5 529.486 625.326 560 626.5C599 628 649.077 613.356 654.5 612C660.5 610.5 755.5 590 818.5 615.5C840 627 858.115 649 865.5 665C868.731 672 883.5 711 921.5 717.5C925.609 718.203 937.812 720.367 947.891 721H957C967 720 1008 715 1022.5 708.5C1034.1 703.3 1051 696.5 1057.5 693C1097.5 670 1173 622.429 1209.5 612C1220 609 1254 597 1281.5 598C1303.5 598.8 1323.33 604.667 1330.5 607.5C1361 618 1413.2 619.1 1446 573.5C1448.5 570 1487.28 517.762 1500 489.5C1513.5 459.5 1532.17 401.333 1545.5 372.5C1550 361 1559.5 337.806 1607 335.5C1664.5 332.709 1700.75 288.654 1702.5 217.5C1704.5 136 1775.19 98.8127 1825 86.5C1869.5 75.5 1911.5 37.5 1919 9.50002C1925 -12.9 1943.5 10.8334 1952 25.5L1931.5 721H957C954.471 721.253 951.302 721.214 947.891 721H-21V11.5H0Z" fill="white"/>
</svg>
