<svg width="38" height="38" viewBox="0 0 38 38" fill="none" xmlns="http://www.w3.org/2000/svg">
<g clip-path="url(#clip0_118_139)">
<path d="M35.9527 5.21354L31.2027 0.463542C30.9612 0.222069 30.648 0.0651568 30.31 0.0162194C29.9721 -0.0327181 29.6273 0.0289425 29.3272 0.192001C27.8679 0.981777 26.2358 1.39829 24.5765 1.40444C22.9172 1.41059 21.2821 1.00617 19.8169 0.22723C19.5703 0.0786667 19.2878 0.000161796 18.9999 0.000161796C18.712 0.000161796 18.4295 0.0786667 18.1829 0.22723C16.7165 1.00201 15.0819 1.40406 13.4234 1.39792C11.7648 1.39177 10.1333 0.977627 8.67263 0.192001C8.37255 0.0289425 8.02779 -0.0327181 7.68979 0.0162194C7.35179 0.0651568 7.03868 0.222069 6.79717 0.463542L2.04717 5.21354C1.90008 5.36058 1.78341 5.53516 1.70381 5.7273C1.62421 5.91944 1.58324 6.12538 1.58325 6.33336V23.75C1.58331 23.9874 1.63669 24.2218 1.73945 24.4359C1.84222 24.6499 1.99175 24.8381 2.177 24.9866L18.0103 37.6533C18.2912 37.8781 18.6402 38.0006 18.9999 38.0006C19.3597 38.0006 19.7087 37.8781 19.9895 37.6533L35.8228 24.9866C36.0081 24.8381 36.1576 24.6499 36.2604 24.4359C36.3631 24.2218 36.4165 23.9874 36.4166 23.75V6.33336C36.4166 6.12538 36.3756 5.91944 36.296 5.7273C36.2164 5.53516 36.0998 5.36058 35.9527 5.21354V5.21354Z" fill="#E6F9FE"/>
<path d="M10.0937 21.8199C9.90831 21.6715 9.75871 21.4833 9.65593 21.2693C9.55315 21.0552 9.49983 20.8208 9.49992 20.5834V3.16669C9.50001 2.7468 9.66688 2.34414 9.96384 2.04727L10.9218 1.08935C10.1387 0.881854 9.38348 0.580555 8.67263 0.192001C8.37255 0.0289425 8.02779 -0.0327181 7.68979 0.0162194C7.35179 0.0651568 7.03868 0.222069 6.79717 0.463542L2.04717 5.21354C1.90009 5.36058 1.78341 5.53516 1.70381 5.7273C1.62421 5.91944 1.58324 6.12538 1.58325 6.33336V23.75C1.58331 23.9874 1.63669 24.2218 1.73945 24.4359C1.84222 24.6499 1.99175 24.8381 2.177 24.9866L18.0103 37.6533C18.2912 37.8781 18.6402 38.0006 18.9999 38.0006C19.3597 38.0006 19.7087 37.8781 19.9895 37.6533L24.9374 33.6949L10.0937 21.8199Z" fill="#CCF2FE"/>
<path d="M31.2027 7.18122L30.0528 6.0333C29.8539 5.83481 29.6059 5.69272 29.3341 5.62157C29.0623 5.55042 28.7765 5.55276 28.5059 5.62836C25.5474 6.43608 22.4119 6.31167 19.5268 5.27211C19.1858 5.15181 18.814 5.15181 18.4731 5.27211C15.5879 6.31165 12.4524 6.43605 9.49398 5.62836C9.22338 5.5528 8.93756 5.55048 8.66576 5.62163C8.39396 5.69278 8.14594 5.83484 7.94706 6.0333L6.79717 7.18122C6.65009 7.32825 6.53341 7.50283 6.45381 7.69497C6.37421 7.88711 6.33324 8.09305 6.33325 8.30103V21.4668C6.33316 21.7043 6.38648 21.9387 6.48926 22.1528C6.59204 22.3668 6.74164 22.555 6.927 22.7034L18.0103 31.5701C18.2912 31.7949 18.6402 31.9174 18.9999 31.9174C19.3597 31.9174 19.7087 31.7949 19.9895 31.5701L31.0728 22.7034C31.2582 22.555 31.4078 22.3668 31.5106 22.1528C31.6134 21.9387 31.6667 21.7043 31.6666 21.4668V8.30103C31.6666 8.09305 31.6256 7.88711 31.546 7.69497C31.4664 7.50283 31.3498 7.32825 31.2027 7.18122Z" fill="url(#paint0_linear_118_139)"/>
<path d="M17.4167 22.1667C17.2088 22.167 17.0029 22.1261 16.8108 22.0466C16.6187 21.967 16.4442 21.8503 16.2973 21.7032L13.1306 18.5365L15.3694 16.2969L17.4167 18.3442L22.6306 13.1302L24.8694 15.3699L18.5361 21.7032C18.3892 21.8503 18.2147 21.967 18.0226 22.0466C17.8305 22.1261 17.6246 22.167 17.4167 22.1667Z" fill="white"/>
</g>
<defs>
<linearGradient id="paint0_linear_118_139" x1="9.04709" y1="24.837" x2="28.9528" y2="4.9313" gradientUnits="userSpaceOnUse">
<stop stop-color="#34CDFA"/>
<stop offset="1" stop-color="#E8D9F1"/>
</linearGradient>
<clipPath id="clip0_118_139">
<rect width="38" height="38" fill="white"/>
</clipPath>
</defs>
</svg>
