<svg width="35" height="35" viewBox="0 0 35 35" fill="none" xmlns="http://www.w3.org/2000/svg">
<path d="M15.3125 10.937V8.74951H2.1875C0.982188 8.74951 0 9.7317 0 10.937V15.312H15.7741C15.47 13.9754 15.3125 12.5361 15.3125 10.937Z" fill="#564DCA"/>
<path d="M34.9103 19.687C33.4184 21.9861 31.1434 23.9417 27.8841 25.8142C27.3831 26.1008 26.8187 26.2495 26.25 26.2495C25.6813 26.2495 25.1169 26.1008 24.6225 25.8186C21.3631 23.9417 19.0881 21.9839 17.5941 19.687H0V30.6245C0 31.832 0.982188 32.812 2.1875 32.812H32.8125C34.02 32.812 35 31.832 35 30.6245V19.687H34.9103ZM9.84375 26.2495H5.46875C4.865 26.2495 4.375 25.7595 4.375 25.1558C4.375 24.552 4.865 24.062 5.46875 24.062H9.84375C10.4475 24.062 10.9375 24.552 10.9375 25.1558C10.9375 25.7595 10.4475 26.2495 9.84375 26.2495Z" fill="#564DCA"/>
<path d="M34.3372 5.55783L26.6809 2.27658C26.4031 2.15846 26.0947 2.15846 25.8169 2.27658L18.1606 5.55783C17.7603 5.72846 17.5 6.12439 17.5 6.56189V10.9369C17.5 16.9547 19.7247 20.4722 25.7053 23.9175C25.8738 24.0138 26.0619 24.0619 26.25 24.0619C26.4381 24.0619 26.6262 24.0138 26.7947 23.9175C32.7753 20.481 35 16.9635 35 10.9369V6.56189C35 6.12439 34.7397 5.72846 34.3372 5.55783ZM30.3866 10.5278L26.0116 15.9966C25.8016 16.2547 25.4866 16.4056 25.1562 16.4056C25.1409 16.4056 25.1234 16.4056 25.1103 16.4056C24.7625 16.3903 24.4409 16.211 24.2462 15.92L22.0587 12.6388C21.7241 12.1356 21.8597 11.4575 22.3628 11.1228C22.8616 10.7903 23.5419 10.9216 23.8788 11.4269L25.2372 13.4635L28.6759 9.16283C29.0544 8.69252 29.7434 8.61814 30.2138 8.99221C30.6863 9.36627 30.7606 10.0553 30.3866 10.5278Z" fill="#00C4F4"/>
</svg>
