<svg width="71" height="85" viewBox="0 0 71 85" fill="none" xmlns="http://www.w3.org/2000/svg">
<path d="M67.3752 7.08322C57.8649 7.08322 41.6954 4.72801 38.0046 1.03715C37.6757 0.708257 37.2853 0.447363 36.8555 0.269367C36.4258 0.0913698 35.9653 -0.000244141 35.5002 -0.000244141C35.0351 -0.000244141 34.5745 0.0913698 34.1448 0.269367C33.7151 0.447363 33.3246 0.708257 32.9958 1.03715C29.3049 4.72801 13.1354 7.08322 3.62516 7.08322C2.68585 7.08322 1.78502 7.45636 1.12083 8.12055C0.456635 8.78474 0.0834961 9.68558 0.0834961 10.6249V49.5832C0.0834961 54.3538 5.50667 58.4728 15.0913 65.3436C21.809 70.155 31.9585 77.4296 31.9585 81.4582C31.9585 82.3975 32.3316 83.2984 32.9958 83.9626C33.66 84.6267 34.5609 84.9999 35.5002 84.9999C36.4395 84.9999 37.3403 84.6267 38.0045 83.9626C38.6687 83.2984 39.0418 82.3975 39.0418 81.4582C39.0418 77.4296 49.1914 70.155 55.909 65.3436C65.4937 58.4728 70.9168 54.3538 70.9168 49.5832V10.6249C70.9168 9.68558 70.5437 8.78474 69.8795 8.12055C69.2153 7.45636 68.3145 7.08322 67.3752 7.08322Z" fill="#E6F9FE"/>
<path d="M29.258 61.8021C19.6733 54.9313 14.2502 50.8123 14.2502 46.0417V7.08333C14.2502 6.84544 14.2741 6.60814 14.3214 6.375C10.7725 6.81605 7.20122 7.05256 3.62516 7.08333C2.68585 7.08333 1.78502 7.45647 1.12083 8.12066C0.456635 8.78486 0.0834961 9.68569 0.0834961 10.625V49.5833C0.0834961 54.354 5.50667 58.4729 15.0913 65.3438C21.809 70.1551 31.9585 77.4297 31.9585 81.4583C31.9585 82.3977 32.3316 83.2985 32.9958 83.9627C33.66 84.6269 34.5609 85 35.5002 85C36.4395 85 37.3403 84.6269 38.0045 83.9627C38.6687 83.2985 39.0418 82.3977 39.0418 81.4583C39.0418 79.5702 41.2691 76.971 44.3273 74.2457C41.1119 70.2959 34.2424 65.3712 29.258 61.8021Z" fill="#CCF2FE"/>
<path d="M57.1203 17.0934C54.5211 16.8203 51.9809 16.4736 49.5703 16.0561C44.3371 15.1535 40.1889 14.0312 36.8889 12.6247C36.4499 12.4375 35.9775 12.3411 35.5002 12.3411C35.0229 12.3411 34.5505 12.4375 34.1114 12.6247C30.8114 14.0312 26.6633 15.1535 21.4304 16.0561C19.0195 16.4714 16.4792 16.8203 13.8801 17.0934C13.0096 17.1849 12.2039 17.5954 11.6183 18.2458C11.0326 18.8962 10.7085 19.7404 10.7085 20.6156V46.9063C10.7087 47.3977 10.8111 47.8837 11.0092 48.3334C11.2074 48.783 11.497 49.1866 11.8595 49.5182C14.0474 51.5206 18.2275 54.5164 21.2817 56.7052C25.3763 59.6395 29.6108 62.6733 33.1609 65.7966C33.8074 66.3654 34.639 66.6791 35.5002 66.6791C36.3613 66.6791 37.1929 66.3654 37.8394 65.7966C41.3895 62.6733 45.624 59.6394 49.7208 56.7034C52.7729 54.5164 56.9529 51.5206 59.1408 49.5182C59.5033 49.1866 59.7929 48.783 59.9911 48.3334C60.1893 47.8837 60.2917 47.3977 60.2918 46.9063V20.6156C60.2918 19.7404 59.9677 18.8962 59.3821 18.2458C58.7964 17.5954 57.9907 17.1849 57.1203 17.0934Z" fill="url(#paint0_linear_251_177)"/>
<path d="M31.9587 49.5832C31.2601 49.5836 30.5772 49.3765 29.9966 48.9882L19.3716 41.9048L23.3006 36.0115L31.2251 41.2935L43.3597 26.1196L48.8909 30.5467L34.7243 48.255C34.3925 48.6698 33.9717 49.0046 33.4929 49.2345C33.0142 49.4644 32.4898 49.5836 31.9587 49.5832Z" fill="white"/>
<defs>
<linearGradient id="paint0_linear_251_177" x1="15.7983" y1="53.4632" x2="55.202" y2="14.0591" gradientUnits="userSpaceOnUse">
<stop stop-color="#34CDFA"/>
<stop offset="1" stop-color="#E8D9F1"/>
</linearGradient>
</defs>
</svg>
