<svg width="44" height="44" viewBox="0 0 44 44" fill="none" xmlns="http://www.w3.org/2000/svg">
<g clip-path="url(#clip0_236_295)">
<path d="M19.4058 22.3438H24.5942V24.9432H19.4058V22.3438Z" fill="#00C4F4"/>
<path d="M21.9999 12.9336C17.0008 12.9336 12.9336 17.0008 12.9336 22C12.9336 26.9992 17.0008 31.0664 21.9999 31.0664C26.9992 31.0664 31.0663 26.9992 31.0663 22C31.0663 17.0008 26.9992 12.9336 21.9999 12.9336ZM27.1723 27.5213H16.8275V19.7656H18.1219V18.4658C18.1219 16.3275 19.8615 14.5879 21.9998 14.5879C24.1382 14.5879 25.8778 16.3275 25.8778 18.4658V19.7656H27.1722V27.5213H27.1723Z" fill="#00C4F4"/>
<path d="M23.2999 18.4658C23.2999 17.7491 22.7168 17.166 22 17.166C21.2833 17.166 20.7002 17.7491 20.7002 18.4658V19.7656H23.2999V18.4658Z" fill="#00C4F4"/>
<path d="M44 12.289V9.71085L37.9661 9.71094L35.3601 12.3169C33.9464 10.3698 32.1179 8.74405 30.0038 7.56903L33.5338 4.03906H38.8208C39.2829 4.90806 40.1971 5.5 41.25 5.5C42.7688 5.5 44 4.26877 44 2.75C44 1.23123 42.7688 0 41.25 0C40.1971 0 39.2829 0.591937 38.8208 1.46094H32.4661L27.4903 6.43672C25.7726 5.83077 23.9251 5.5 22 5.5C20.0749 5.5 18.2274 5.83077 16.5098 6.43672L11.534 1.46094H5.1792C4.71711 0.591937 3.80291 0 2.75 0C1.23123 0 0 1.23123 0 2.75C0 4.26877 1.23123 5.5 2.75 5.5C3.80282 5.5 4.71711 4.90806 5.1792 4.03906H10.4662L13.9962 7.56912C11.8821 8.74414 10.0536 10.3699 8.6399 12.317L6.03393 9.71094L0 9.71085V12.289L4.96598 12.2891L7.25862 14.5817C6.31692 16.4494 5.71914 18.52 5.54984 20.7109H0V23.2891H5.54984C5.71914 25.48 6.31692 27.5506 7.25862 29.4183L4.96598 31.7109L0 31.711V34.2892L6.03393 34.2891L8.6399 31.6831C10.0536 33.6302 11.8821 35.2559 13.9962 36.431L10.4662 39.9609H5.1792C4.71711 39.0919 3.80291 38.5 2.75 38.5C1.23123 38.5 0 39.7312 0 41.25C0 42.7688 1.23123 44 2.75 44C3.80291 44 4.71711 43.4081 5.1792 42.5391H11.5339L16.5097 37.5633C18.2274 38.1692 20.0749 38.5 22 38.5C23.9251 38.5 25.7726 38.1692 27.4902 37.5633L32.466 42.5391H38.8207C39.2828 43.4081 40.1971 44 41.2499 44C42.7687 44 43.9999 42.7688 43.9999 41.25C43.9999 39.7312 42.7687 38.5 41.2499 38.5C40.1971 38.5 39.2828 39.0919 38.8207 39.9609H33.5338L30.0037 36.4309C32.1178 35.2559 33.9463 33.6301 35.36 31.683L37.9661 34.2891L44 34.2892V31.711L39.034 31.7109L36.7414 29.4183C37.6831 27.5507 38.2809 25.48 38.4502 23.2891H44V20.7109H38.4502C38.2809 18.52 37.6831 16.4494 36.7414 14.5817L39.034 12.2891L44 12.289ZM22 33.6445C15.5792 33.6445 10.3556 28.4208 10.3556 22C10.3556 15.5792 15.5792 10.3555 22 10.3555C28.4208 10.3555 33.6445 15.5792 33.6445 22C33.6445 28.4208 28.4208 33.6445 22 33.6445Z" fill="#564DCA"/>
</g>
<defs>
<clipPath id="clip0_236_295">
<rect width="44" height="44" fill="white"/>
</clipPath>
</defs>
</svg>
