<svg width="45" height="45" viewBox="0 0 45 45" fill="none" xmlns="http://www.w3.org/2000/svg">
<path d="M22.5 1.40535C19.3971 1.40541 16.4459 2.0734 13.7906 3.27852C13.4271 3.44355 13.2737 3.87754 13.4528 4.23428L14.7093 6.75154C14.8781 7.08962 15.2837 7.23394 15.628 7.07837C17.7269 6.14126 20.05 5.62547 22.5 5.62547C31.8281 5.62547 39.3736 13.171 39.3736 22.4991C39.3736 26.0082 38.2935 29.2509 36.4622 31.9515L34.2458 29.7335C34.0943 29.5818 33.882 29.5074 33.669 29.5316C33.3137 29.5728 33.0459 29.8743 33.0469 30.232V37.9663C33.0455 38.3546 33.3589 38.6707 33.7472 38.6722H41.4803C42.112 38.6775 42.4291 37.911 41.9788 37.4679L39.4862 34.9753C42.0577 31.4795 43.5937 27.1682 43.5937 22.499C43.5937 10.8576 34.1414 1.40533 22.5 1.40535ZM3.51288 6.32585C2.8876 6.32608 2.57363 7.08121 3.01437 7.52474L5.50827 10.0186C2.93636 13.5149 1.40625 17.8291 1.40625 22.4991C1.40625 34.1405 10.8586 43.5928 22.5 43.5929C25.6029 43.5929 28.5541 42.9193 31.2094 41.7142C31.5723 41.5486 31.7251 41.1147 31.5459 40.7583L30.2852 38.2412C30.1167 37.9061 29.7148 37.7623 29.3719 37.9143C27.2731 38.8515 24.95 39.3727 22.5 39.3727C13.1719 39.3727 5.62637 31.8272 5.62637 22.4991C5.62637 18.9913 6.7001 15.7447 8.52951 13.044L10.7542 15.2632C11.1978 15.704 11.9529 15.3899 11.9531 14.7647V7.03174C11.9545 6.64127 11.6377 6.32436 11.2472 6.32585H3.51288ZM22.4986 11.2477C16.2938 11.2477 11.2514 16.2956 11.2514 22.5005C11.2514 28.7054 16.2938 33.7477 22.4986 33.7477C28.7035 33.7477 33.7514 28.7054 33.7514 22.5005C33.7514 16.2956 28.7035 11.2477 22.4986 11.2477ZM22.4958 14.0561C22.8475 14.0561 23.1989 14.2902 23.1989 14.7592V16.2492C24.7994 16.5761 26.0128 17.9985 26.0128 19.6921C26.034 20.6506 24.5853 20.6506 24.6066 19.6921C24.6066 18.5188 23.6719 17.5854 22.4986 17.5854C21.3253 17.5854 20.3919 18.5188 20.3919 19.6921C20.3919 20.8654 21.3253 21.8001 22.4986 21.8001C24.4319 21.8001 26.0128 23.3852 26.0128 25.3185C26.0128 27.012 24.7994 28.4358 23.1989 28.7627V30.239C23.1989 31.1767 21.7927 31.1767 21.7927 30.239V28.7613C20.195 28.4323 18.9857 27.0101 18.9857 25.3185C19.006 24.4015 20.3707 24.4015 20.3919 25.3185C20.3919 26.4918 21.3253 27.4265 22.4986 27.4265C23.6719 27.4265 24.6066 26.4918 24.6066 25.3185C24.6066 24.1452 23.6719 23.2063 22.4986 23.2063C20.5652 23.2063 18.9857 21.6254 18.9857 19.6921C18.9857 18.0004 20.195 16.5796 21.7927 16.2506V14.7592C21.7927 14.2903 22.1442 14.0561 22.4958 14.0561Z" fill="#564DCA"/>
<circle cx="23" cy="22" r="12" fill="#00C4F4"/>
<path d="M25.9119 20.7179C25.2281 20.3458 24.5034 20.0711 23.7846 19.7792C23.3696 19.6132 22.9722 19.4129 22.6215 19.1382C21.9319 18.5944 22.0605 17.7187 22.8728 17.3696C23.1008 17.2723 23.3404 17.238 23.5859 17.2265C24.5268 17.175 25.4152 17.3467 26.2684 17.7474C26.6892 17.9477 26.8295 17.8847 26.9756 17.4555C27.1276 16.9976 27.2561 16.534 27.3906 16.0761C27.4841 15.767 27.3672 15.561 27.0691 15.435C26.5256 15.2004 25.9645 15.0287 25.3742 14.9428C24.6086 14.8226 24.6086 14.8226 24.6028 14.0671C24.5969 12.9968 24.5969 12.9968 23.5099 13.0025C23.3521 13.0025 23.1943 12.9968 23.0365 13.0025C22.528 13.0197 22.4404 13.1056 22.4287 13.6035C22.4228 13.8267 22.4287 14.0557 22.4287 14.2789C22.4228 14.9485 22.4228 14.9371 21.7683 15.166C20.1903 15.7269 19.2143 16.7801 19.1091 18.4685C19.0156 19.9624 19.8104 20.9697 21.0611 21.7023C21.8325 22.1545 22.6858 22.4235 23.504 22.7783C23.8255 22.9157 24.1294 23.076 24.3924 23.2935C25.1814 23.9288 25.0353 24.9876 24.1002 25.3883C23.5975 25.6 23.0716 25.6573 22.5339 25.5886C21.6981 25.4856 20.8974 25.2738 20.1494 24.8903C19.711 24.6671 19.5825 24.7243 19.4305 25.1937C19.3019 25.6 19.185 26.0064 19.074 26.4128C18.922 26.9622 18.9746 27.0939 19.5123 27.3457C20.1903 27.6662 20.9208 27.8322 21.6631 27.9524C22.2417 28.044 22.265 28.0669 22.2709 28.6564C22.2709 28.9254 22.2767 29.1944 22.2767 29.4577C22.2826 29.7954 22.4462 29.99 22.8027 29.9957C23.206 30.0014 23.6092 30.0014 24.0125 29.9957C24.3398 29.99 24.5093 29.8126 24.5151 29.4863C24.5151 29.12 24.5327 28.7537 24.521 28.3874C24.5034 28.0154 24.6671 27.8265 25.0353 27.7292C25.8769 27.506 26.5957 27.0595 27.1509 26.4013C28.6705 24.5698 28.086 21.8969 25.9119 20.7179Z" fill="#020D18"/>
</svg>
